<svg id="レイヤー_1" data-name="レイヤー 1" xmlns="http://www.w3.org/2000/svg" viewBox="0 0 283.33 240.43"><defs><style>.cls-1{fill:#ff7bac;}.cls-2{fill:red;}.cls-3{fill:#29abe2;}.cls-4{fill:#2e3192;}.cls-5{fill:#fcee21;}.cls-6{fill:#fbb03b;}</style></defs><title>ill</title><rect class="cls-1" x="71.5" y="71.5" width="140.73" height="140.73"/><path class="cls-2" d="M505.87,284.13V423.87H366.13V284.13H505.87m1-1H365.13V424.87H506.87V283.13Z" transform="translate(-294.13 -212.13)"/><circle class="cls-3" cx="70.87" cy="70.87" r="70.37"/><path class="cls-4" d="M365,213.13A69.87,69.87,0,1,1,295.13,283,70,70,0,0,1,365,213.13m0-1A70.87,70.87,0,1,0,435.87,283,70.87,70.87,0,0,0,365,212.13Z" transform="translate(-294.13 -212.13)"/><polygon class="cls-5" points="142.47 239.93 212.47 118.69 282.46 239.93 142.47 239.93"/><path class="cls-6" d="M506.6,331.82l69.13,119.74H437.47L506.6,331.82m0-2L435.73,452.56H577.47L506.6,329.82Z" transform="translate(-294.13 -212.13)"/></svg>