<svg id="レイヤー_1" data-name="レイヤー 1" xmlns="http://www.w3.org/2000/svg" viewBox="0 0 237.13 281.05"><defs><style>.cls-1{fill:#ff7bac;}.cls-2{fill:red;}.cls-3{fill:#29abe2;}.cls-4{fill:#2e3192;}.cls-5{fill:#fcee21;}.cls-6{fill:#fbb03b;}</style></defs><title>ill</title><rect class="cls-1" x="24.9" y="139.81" width="140.73" height="140.73"/><path class="cls-2" d="M505.87,284.13V423.87H366.13V284.13H505.87m1-1H365.13V424.87H506.87V283.13Z" transform="translate(-340.73 -143.82)"/><circle class="cls-3" cx="166.27" cy="139.18" r="70.37"/><path class="cls-4" d="M507,213.13A69.87,69.87,0,1,1,437.13,283,70,70,0,0,1,507,213.13m0-1A70.87,70.87,0,1,0,577.87,283,70.87,70.87,0,0,0,507,212.13Z" transform="translate(-340.73 -143.82)"/><polygon class="cls-5" points="0.87 122.24 70.87 1 140.87 122.24 0.87 122.24"/><path class="cls-6" d="M411.6,145.82l69.13,119.74H342.47L411.6,145.82m0-2L340.73,266.56H482.47L411.6,143.82Z" transform="translate(-340.73 -143.82)"/></svg>